<?xml version="1.0" encoding="utf-8"?>
<!-- Generator: Adobe Illustrator 23.0.6, SVG Export Plug-In . SVG Version: 6.00 Build 0)  -->
<svg height="24" width="24" version="1.1" id="Layer_1" xmlns="http://www.w3.org/2000/svg" xmlns:xlink="http://www.w3.org/1999/xlink" x="0px" y="0px"
	 viewBox="0 0 24 24" style="enable-background:new 0 0 24 24;" xml:space="preserve">
<g id="XMLID_1_">
	<g>
		<path style="fill:#FFFFFF;" d="M15,7V5h-1v1L15,7z M16,14v-4h1l-5-5l-5,5h1v4h3v-2h2v2H16z M12,2c4.4,0,8,3.6,8,8s-3.6,8-8,8
			s-8-3.6-8-8S7.6,2,12,2z"/>
		<polygon style="fill:#6F42C1;" points="17,10 16,10 16,14 13,14 13,12 11,12 11,14 8,14 8,10 7,10 12,5 		"/>
		<polygon style="fill:#6F42C1;" points="15,5 15,7 14,6 14,5 		"/>
		<path style="fill:#6F42C1;" d="M12,0c5.5,0,10,4.4,10,9.8c0,5.5-4.4,9.3-10,14.2C6.4,19.1,2,15.3,2,9.8C2,4.4,6.5,0,12,0z M20,10
			c0-4.4-3.6-8-8-8s-8,3.6-8,8s3.6,8,8,8S20,14.4,20,10z"/>
	</g>
</g>
</svg>
