<?xml version="1.0" encoding="utf-8"?>
<!-- Generator: Adobe Illustrator 23.0.6, SVG Export Plug-In . SVG Version: 6.00 Build 0)  -->
<svg version="1.1" id="Layer_1" xmlns="http://www.w3.org/2000/svg" xmlns:xlink="http://www.w3.org/1999/xlink" x="0px" y="0px"
	 viewBox="0 0 24 24" style="enable-background:new 0 0 24 24;" xml:space="preserve">
<style type="text/css">
	.st0{fill:#FFFFFF;}
	.st1{fill:#F39C12;}
</style>
<g id="XMLID_1_">
	<path class="st0" d="M17,8.6l-3.5-0.5L12,5l-1.5,3.1L7,8.6l2.5,2.4l-0.6,3.4l3.1-1.7l3.1,1.7l-0.6-3.4L17,8.6z M12,2
		c4.4,0,8,3.6,8,8s-3.6,8-8,8s-8-3.6-8-8S7.6,2,12,2z"/>
	<polygon class="st1" points="17,8.6 14.5,11.1 15.1,14.5 12,12.9 8.9,14.5 9.5,11.1 7,8.6 10.5,8.1 12,5 13.5,8.1 	"/>
	<path class="st1" d="M20,10c0-4.4-3.6-8-8-8s-8,3.6-8,8s3.6,8,8,8S20,14.4,20,10z M12,0c5.5,0,10,4.4,10,9.8c0,5.5-4.4,9.3-10,14.2
		C6.4,19.1,2,15.3,2,9.8C2,4.4,6.5,0,12,0z"/>
</g>
</svg>
